<svg xmlns="http://www.w3.org/2000/svg" width="16" height="17" viewBox="0 0 16 17" fill="none">
  <path d="M9.71615 9.09809C7.89219 9.09809 6.42705 7.48643 6.42705 5.50998C6.42705 3.53353 7.89219 1.92188 9.71615 1.92188C11.5401 1.92188 13.0052 3.53353 13.0052 5.50998C13.0052 7.48643 11.5401 9.09809 9.71615 9.09809ZM4.33398 12.5367C4.33398 11.8626 4.60176 11.2162 5.0784 10.7395C5.55503 10.2629 6.20149 9.99512 6.87556 9.99512H12.5567C12.8905 9.99512 13.221 10.0609 13.5294 10.1886C13.8377 10.3163 14.1179 10.5035 14.3539 10.7395C14.5899 10.9755 14.7771 11.2557 14.9048 11.5641C15.0326 11.8724 15.0983 12.2029 15.0983 12.5367C15.0983 12.8705 15.0326 13.201 14.9048 13.5093C14.7771 13.8177 14.5899 14.0979 14.3539 14.3339C14.1179 14.5699 13.8377 14.7571 13.5294 14.8848C13.221 15.0125 12.8905 15.0783 12.5567 15.0783H6.87556C6.20174 15.0775 5.55574 14.8095 5.07927 14.333C4.6028 13.8565 4.33478 13.2105 4.33398 12.5367Z" fill="url(#paint0_linear_1660_5222)"/>
  <path fill-rule="evenodd" clip-rule="evenodd" d="M5.51568 4.68622C5.23213 4.54566 4.91672 4.46729 4.58385 4.46729C3.33623 4.46729 2.33404 5.56822 2.33404 6.91834C2.33404 8.26847 3.33623 9.3694 4.58385 9.3694C5.40703 9.3694 6.12336 8.89013 6.51548 8.17623C5.84723 7.51865 5.42863 6.56643 5.42863 5.50998C5.42863 5.22668 5.45873 4.95086 5.51568 4.68622ZM4.08019 10.4643C3.60355 10.9409 3.33578 11.5874 3.33578 12.2614C3.33627 12.6814 3.44055 13.0905 3.63439 13.4545H2.64083C2.17992 13.454 1.73805 13.2709 1.41213 12.9454C1.08622 12.6199 0.902885 12.1786 0.902344 11.7183C0.902344 11.2579 1.08551 10.8163 1.41154 10.4907C1.73757 10.1651 2.17976 9.98216 2.64083 9.98216H4.75283C4.50606 10.1039 4.27843 10.266 4.08019 10.4643Z" fill="#5072FF" fill-opacity="0.5"/>
  <defs>
    <linearGradient id="paint0_linear_1660_5222" x1="15.0983" y1="8.50007" x2="4.33433" y2="8.5609" gradientUnits="userSpaceOnUse">
      <stop stop-color="#4098FF"/>
      <stop offset="1" stop-color="#6147FF"/>
    </linearGradient>
  </defs>
</svg>